<?xml version="1.0" encoding="utf-8"?>
<!-- Generator: Adobe Illustrator 25.2.1, SVG Export Plug-In . SVG Version: 6.00 Build 0)  -->
<svg version="1.1" id="レイヤー_1" xmlns="http://www.w3.org/2000/svg" xmlns:xlink="http://www.w3.org/1999/xlink" x="0px"
	 y="0px" viewBox="0 0 444 54" style="enable-background:new 0 0 444 54;" xml:space="preserve">
<style type="text/css">
	.st0{enable-background:new    ;}
	.st1{fill:none;stroke:#FFFFFF;stroke-width:2;}
</style>
<g class="st0">
	<path class="st1" d="M70.6,28.6H59.6c-1,8.3-4.3,12.5-12.1,19c-1.4,1.2-3.9,0.5-6.1-1.8c-2.2-2.3-2.3-4.9-0.8-6.1
		c5.9-4.2,8-6.5,8.8-11.1H35.3c-1.8,0-3.1-2-3.1-5.1c0-3,1.3-5,3.1-5h35.4c1.8,0,3.1,2,3.1,5C73.7,26.6,72.4,28.6,70.6,28.6z
		 M65.4,14.5h-25c-1.8,0-3.1-2-3.1-5.1c0-3,1.3-5,3.1-5h25c1.8,0,3.1,2,3.1,5C68.5,12.5,67.1,14.5,65.4,14.5z"/>
	<path class="st1" d="M92.4,48.5c-1.6,0.8-3.7-0.4-5.2-3.1c-1.5-2.6-1-5.1,0.6-5.8c11.2-5.1,15.4-9,17.2-12.8H79.7c-1.7,0-3-2-3-5
		c0-3,1.3-4.9,3-4.9H106c1.4,0,2.8-0.2,3.9-0.5c0.6-0.2,1.3-0.2,1.9,0c1.4,0.4,2.3,1.4,4,3.1c1.7,1.7,2.4,3.3,1.9,4.7
		C114.4,32.2,110.2,39.6,92.4,48.5z M107.2,14.1H84.9c-1.8,0-3.1-2-3.1-5.1c0-3.1,1.4-5.1,3.1-5.1h22.3c1.8,0,3.1,2,3.1,5.1
		C110.3,12.1,109,14.1,107.2,14.1z"/>
	<path class="st1" d="M166.3,41.9c-1.9,2.5-4.3,3.3-5.7,2.2l-21.3-17.5c-0.3-0.2-0.7-0.5-1-0.5c-0.7,0-1.1,0.5-8.5,9
		c-1.2,1.4-3.9,1.1-6.2-1.3c-2.2-2.3-2.6-5-1.2-6.3C134.9,16.8,137.2,15,138.9,15c0.4,0,0.8,0.2,1.2,0.6l26.7,20.1
		C168.2,36.8,168.1,39.4,166.3,41.9z M159.3,18.1c-1,0.7-2.1,0.8-2.5,0.1l-3.6-5.2c-0.4-0.6,0-1.5,1-2.3c1-0.7,2-0.8,2.5-0.1
		l3.6,5.1C160.7,16.4,160.4,17.4,159.3,18.1z M164.8,15.2c-1,0.8-2.1,0.8-2.5,0.2l-3.6-5.2c-0.5-0.5,0-1.5,1-2.3
		c1-0.7,2-0.8,2.5-0.1l3.5,5.2C166.2,13.5,165.8,14.4,164.8,15.2z"/>
	<path class="st1" d="M179.9,44.2c-1.2,1.3-3.7,0.8-5.8-1.4c-2.2-2.2-2.5-4.7-1.1-6c5.7-5.6,6.7-10.6,6.8-24.8c0-1.8,2-3.1,5.1-3.1
		c3,0,5,1.3,5,3.1C189.7,28.9,188.4,35.6,179.9,44.2z M198.9,45.6c-1.6,0.8-3.7-0.3-5.4-2.8c-1.7-2.5-1.6-4.8-0.7-6.3
		c0.3-0.7,0.5-1.6,0.5-2.8V10.3c0-1.8,2-3.1,5-3.1c3.1,0,5.1,1.4,5.1,3.1v21.7c1.8-1.1,4.8-3.3,7.2-5.6c1.4-1.2,3.9-0.8,5.7,1.7
		c1.8,2.6,2.1,5,0.7,6.2C211.3,38.9,205,42.8,198.9,45.6z"/>
	<path class="st1" d="M262,44.9c-6.2,0.7-10.9,0.7-14.2,0.7c-5.5,0-11-5.4-11-9c0-0.2,0-0.3,0-0.4c0,0.1-0.1,0.2-0.2,0.3
		c-2.8,4.3-4.7,7.6-5.8,9.6c-0.7,1.2-2.6,1.6-5,1c-2.4-0.6-4-1.7-4.1-3c-0.5-4.2-0.7-11.2-0.8-19.9c0-3.9,1.1-12.7,2-18.1
		c0.3-1.8,2.5-2.8,5.6-2.5c3.1,0.4,4.9,2.1,4.5,4c-1.2,5.5-2.5,13.2-2.5,16.4c0,6.2,0.1,8.9,0.3,10c0,0.2,0.3,0.3,0.5,0.2
		c0.2-0.4,0.5-0.9,0.9-1.5c0.5-0.9,2-1.1,3.3,0.3c0.8,0.9,1.3,1.7,1.3,2.4c0.2-1.5,0.9-3.5,2.6-6.9c0.7-1.4,2.8-1.7,5.4-1.1
		c2.6,0.5,3.5,2.6,2.9,4c-0.5,1.2-0.8,2.1-0.8,2.4c0,1.2,0.5,1.5,5.3,1.5c1.2,0,5.2-0.1,8.2-0.4c1.8-0.2,4,1.4,4.3,4.6
		C265,42.5,263.9,44.7,262,44.9z M259.5,17.9c-4.8-0.3-11.5-0.2-17,0.2c-1.9,0.1-3.4-2-3.6-5.1c-0.2-3.1,1.2-5.4,3.1-5.4
		c4.8-0.2,12.4-0.2,18.4,0c1.9,0,3.2,2.2,3,5.4C263.1,16.1,261.3,18.1,259.5,17.9z"/>
	<path class="st1" d="M284.9,46.2c-2,0.4-3.9-1.4-4.8-4.6c-0.9-3.2,0.2-5.8,2.1-6.1c18.1-3,20.6-6,20.6-9.8c0-3.5-2.2-6.7-6.8-6.7
		c-5.7,0-8.9,1-22.4,5.7c-1.8,0.7-4.1-1.1-4.8-4.4c-0.8-3.4,0.1-6,2.1-6.5c13.5-3.5,20.2-5,25.2-5c10.5,0,17.5,5.8,17.5,16.5
		C313.6,36,309,41.1,284.9,46.2z"/>
	<path class="st1" d="M330,48.2c-4.2,0-10.9-6.9-11.8-20.6c-0.3-4.2,0-12.8,0.5-19.2c0.2-1.8,2.2-3,5.3-2.8c3.1,0.1,5,1.8,4.8,3.5
		c-0.8,7.5-0.9,15.4-0.8,17.3c0.4,5.4,1.7,7.8,2.2,7.8c0.8,0,1.5-1.1,3.2-4.2c0.7-1.4,2.9-1.6,5.2-0.2c2.4,1.4,3.4,3.3,2.6,4.7
		C334.8,45.2,332.6,48.2,330,48.2z M358.6,35.1c-3.2,1.1-5.7-0.1-6.2-2c-1.1-4.2-3.4-10.6-4.9-14.3c-0.7-1.6,0.5-3.8,3.2-5
		c2.8-1,5.1-0.8,5.9,0.8c2.2,4.2,5,11,6.4,15.5C363.6,31.9,361.8,34,358.6,35.1z"/>
	<path class="st1" d="M408.5,14.4c-2.4,0.2-5.1,0.5-7.7,0.7c-6.1,4.8-10.8,11.2-10.8,15.3c0,4.8,1.4,6.8,13.7,7.6
		c1.9,0.1,3.2,2.4,2.8,5.5c-0.4,3.1-1.9,5.1-3.8,5c-16.3-1.1-23.9-5.8-23.9-17.5c0-3.6,2.6-9,7.8-14.1c-6.4,0.8-12.2,1.6-15.5,2
		c-2,0.3-3.9-1.8-4.2-5.2c-0.3-3.3,1.1-5.8,3.2-5.8c9.2-0.5,28.1-2.3,37.3-4.1c2-0.3,4,1.5,4.2,4.8
		C411.8,11.9,410.4,14.2,408.5,14.4z"/>
</g>
</svg>
