<?xml version="1.0" encoding="utf-8"?>
<!-- Generator: Adobe Illustrator 25.2.1, SVG Export Plug-In . SVG Version: 6.00 Build 0)  -->
<svg version="1.1" id="レイヤー_1" xmlns="http://www.w3.org/2000/svg" xmlns:xlink="http://www.w3.org/1999/xlink" x="0px"
	 y="0px" viewBox="0 0 397 54" style="enable-background:new 0 0 397 54;" xml:space="preserve">
<style type="text/css">
	.st0{enable-background:new    ;}
	.st1{fill:none;stroke:#FFFFFF;stroke-width:2;}
</style>
<g class="st0">
	<path class="st1" d="M119.9,18.2h-18.5c-1.1,0-2.1-1.3-2.1-3.3c0-1.9,0.9-3.2,2.1-3.2h18.5c1.1,0,2.1,1.3,2.1,3.2
		C122,16.9,121.1,18.2,119.9,18.2z M116.5,50.2H105c-2.1,0-3.8-1.7-3.8-3.8v-8c0-2.1,1.6-3.8,3.8-3.8h11.6c2.1,0,3.8,1.7,3.8,3.8v8
		C120.3,48.5,118.6,50.2,116.5,50.2z M117.9,10.6h-14.5c-1.1,0-2-1.3-2-3.3c0-2,0.9-3.2,2-3.2h14.5c1.1,0,2,1.3,2,3.2
		C120,9.3,119.1,10.6,117.9,10.6z M117.9,25.8h-14.5c-1.1,0-2-1.3-2-3.3c0-2,0.9-3.2,2-3.2h14.5c1.1,0,2,1.3,2,3.2
		C120,24.5,119.1,25.8,117.9,25.8z M117.9,33.5h-14.5c-1.1,0-2-1.3-2-3.3c0-2,0.9-3.3,2-3.3h14.5c1.1,0,2,1.3,2,3.3
		C120,32.2,119.1,33.5,117.9,33.5z M111.9,41.3c0-0.3-0.2-0.5-0.5-0.5H110c-0.3,0-0.5,0.2-0.5,0.5v2.2c0,0.3,0.2,0.5,0.5,0.5h1.4
		c0.3,0,0.5-0.2,0.5-0.5V41.3z M147.8,40.2c-1.3,7.2-3.8,9.8-8.3,9.8h-10.2c-4,0-7-2.2-7-8V25c0-2.1,1.6-3.8,3.8-3.8h9.7
		c0.3,0,0.5-0.2,0.5-0.5v-5.9c0-0.3-0.2-0.5-0.5-0.5h-11.1c-1.6,0-2.9-1.8-2.9-4.6c0-2.7,1.2-4.6,2.9-4.6h17.1
		c2.1,0,3.8,1.7,3.8,3.8v17.6c0,2.1-1.6,3.7-3.8,3.7H132c-0.3,0-0.5,0.2-0.5,0.5v9.1c0,0.4,0.2,0.7,0.9,0.7h5.5
		c2.4,0-0.1-4.8,4.6-4.8c2.2,0,5.4,1.1,5.4,3.7C147.8,39.7,147.8,39.9,147.8,40.2z"/>
	<path class="st1" d="M195.8,37.4h-0.3v2.3c0,2.1-1.6,3.8-3.8,3.8h-13.1v2.3c0,3.7-1.5,5-5.1,5H165c-1.1,0-1.9-1.2-1.9-3
		c0-1.8,0.9-2.8,2-2.8c0.9,0,1.7,0.1,2.6,0.1c0.4,0,0.8-0.3,0.8-0.7v-0.9h-15.5c-1,0-1.7-1.1-1.7-2.8c0-1.6,0.8-2.7,1.7-2.7h15.5
		v-1.1h-17.3c-0.9,0-1.6-1.1-1.6-2.7c0-1.6,0.7-2.6,1.6-2.6h17.3v-1.2h-15.5c-1,0-1.7-1.1-1.7-2.7c0-1.6,0.7-2.7,1.7-2.7h15.5v-1.1
		h-11.7c-2.1,0-3.8-1.7-3.8-3.8v-3.1c0-2.1,1.6-3.8,3.8-3.8h11.7v-1.2h-16.9c-1.1,0-2-1.3-2-3.4c0-1.9,0.9-3.3,2-3.3h16.9
		c0-2.1,2.1-2.7,5.1-2.7s5.1,0.6,5.1,2.7h16.9c1.1,0,2.1,1.4,2.1,3.3c0,2-0.9,3.4-2.1,3.4h-16.9v1.2h11.7c2.1,0,3.8,1.7,3.8,3.8v3.1
		c0,2.1-1.7,3.8-3.8,3.8h-11.7V25h13.1c2.1,0,3.8,1.7,3.8,3.8v2.3h0.3c1.1,0,2,1.2,2,3.2S196.9,37.4,195.8,37.4z M168.4,17.8h-4.9
		c-0.3,0-0.5,0.2-0.5,0.5v0.6c0,0.3,0.2,0.5,0.5,0.5h4.9V17.8z M184,18.3c0-0.3-0.2-0.5-0.5-0.5h-4.9v1.6h4.9c0.3,0,0.5-0.2,0.5-0.5
		V18.3z M186.1,30.9c0-0.3-0.2-0.5-0.5-0.5h-7v1.4h7.5V30.9z M186.1,36.6h-7.5V38h7c0.3,0,0.5-0.2,0.5-0.5V36.6z"/>
	<path class="st1" d="M244,32.5h-41c-2.2,0-3.9-2.5-3.9-6.3c0-3.8,1.7-6.2,3.9-6.2h41c2.2,0,3.9,2.5,3.9,6.2
		C247.9,30,246.2,32.5,244,32.5z"/>
	<path class="st1" d="M292.3,50.2h-13.1c-3.7,0-5.4-1.7-5.4-5v-3.5h-2.1c-1.4,8.1-11.4,9.3-18,9.3c-1.9,0-3.2-3-3.2-4.7
		c0-1.5,0.9-2.4,1.9-2.4c7-0.1,9.2-0.8,10-2.2h-4.7c-2.1,0-3.8-1.7-3.8-3.8V27.3c0-2.1,1.7-3.8,3.8-3.8h31.8c2.1,0,3.8,1.6,3.8,3.8
		v10.6c0,1-0.4,1.9-1,2.6h0.4c2,0,5.3,1.1,5.3,3.4v0.3C297.2,48.2,295.7,50.2,292.3,50.2z M295.4,13.2h-12.6
		c-0.6,0.8-1.1,1.5-1.6,2.2h11.9c1.2,0,2.2,1.4,2.2,3.5c0,2.1-0.9,3.5-2.2,3.5h-13.4c-1.2,0-2.2-1.4-2.2-3.5v-0.1
		c-1.6,0-3.5-1.8-4-3.2c-0.2,1.2-1.1,1.6-2.7,1.6v1.3h2.2c0.8,0,1.3,0.8,1.3,2.1s-0.5,2.1-1.3,2.1h-18.4c-2.1,0-3.8-1.7-3.8-3.8V7.8
		c0-2.1,1.7-3.8,3.8-3.8h18.4c0.8,0,1.3,0.9,1.3,2.1c0,1.2-0.5,2.1-1.3,2.1h-2.2v1.4c1.7,0,2.5,0.4,2.7,1.9c0,0,0,0,0.1-0.1
		c1.9-1.9,3.6-4.4,4.8-6.8c0.5-1.1,1.8-1.8,3.6-1.8c1.9,0,5.1,0.9,5.1,3.2v0.2h8.2c1.2,0,2.1,1.4,2.1,3.5
		C297.6,11.8,296.7,13.2,295.4,13.2z M264,8.2h-3.7c-0.3,0-0.5,0.2-0.5,0.5v0.9h4.2V8.2z M265.4,13.2c0-0.3-0.2-0.5-0.5-0.5h-5.1V14
		h5.1c0.3,0,0.5-0.2,0.5-0.5V13.2z M264,17.1h-4.2v0.8c0,0.3,0.2,0.5,0.5,0.5h3.7V17.1z M283.1,27.6c0-0.3-0.2-0.5-0.5-0.5h-18.2
		c-0.3,0-0.5,0.2-0.5,0.5v0.8h19.2V27.6z M283.1,31.8h-19.2v1.4h19.2V31.8z M283.1,36.8h-19.2v0.8c0,0.3,0.2,0.5,0.5,0.5h18.2
		c0.3,0,0.5-0.2,0.5-0.5V36.8z M283.7,41.7V43c0,0.4,0.2,0.6,0.5,0.6h4.1c1.1,0,0.8-1.3,1.3-1.9H283.7z"/>
</g>
</svg>
