<?xml version="1.0" encoding="utf-8"?>
<!-- Generator: Adobe Illustrator 25.2.1, SVG Export Plug-In . SVG Version: 6.00 Build 0)  -->
<svg version="1.1" id="レイヤー_1" xmlns="http://www.w3.org/2000/svg" xmlns:xlink="http://www.w3.org/1999/xlink" x="0px"
	 y="0px" viewBox="0 0 1366 209" style="enable-background:new 0 0 1366 209;" xml:space="preserve">
<style type="text/css">
	.st0{enable-background:new    ;}
	.st1{fill:#FFFFFF;}
</style>
<g class="st0">
	<path class="st1" d="M528.6,133.9h-45.4c-0.8,29.1-5.2,37.2-30.1,64.9c-1.8,2.1-5.5,2.1-8.2-0.6c-2.7-2.7-3-6.1-1-8.1
		c22.8-24.6,26.4-33.3,27.1-56.2H418c-2.7,0-4.9-2.7-4.9-6.5c0-3.6,2.2-6.1,4.9-6.1h110.5c2.7,0,4.9,2.5,4.9,6.1
		C533.5,131.2,531.3,133.9,528.6,133.9z M511.2,92.8h-75c-2.7,0-5-2.5-5-6.3c0-3.6,2.2-6,5-6h75c2.7,0,5,2.4,5,6
		C516.1,90.2,513.9,92.8,511.2,92.8z"/>
	<path class="st1" d="M574.3,201.5c-2.5,1.3-5.8,0-7.8-3.5c-2-3.5-0.8-6.8,1.8-8c40.3-18.7,62.1-41.7,68.2-63h-88.6
		c-2.4,0-4.8-2.4-4.8-6.1s2.4-6.2,4.8-6.2h82c5.1,0,9.1-0.6,11.7-1.6c1-0.5,2.1-0.6,3.1-0.3c2.1,0.8,3.5,1.9,5.4,4.3
		c2.1,2.4,2.7,4.8,1.9,6.9C640.8,155.6,624.1,175.9,574.3,201.5z M635.8,93.4h-74.7c-2.7,0-5.1-2.5-5.1-6.3c0-3.8,2.4-6.3,5.1-6.3
		h74.7c2.7,0,5.1,2.5,5.1,6.3C640.9,90.8,638.5,93.4,635.8,93.4z"/>
	<path class="st1" d="M788.2,178l-71.5-54.4c-1-0.6-1.9-1.2-3-1.2c-2.2,0-13.2,9.9-38.8,34.8c-2.2,2.1-6,1.8-8.8-1.2
		c-2.7-3-2.7-6.8-0.5-8.7c39.9-34.6,43.9-38.2,49.2-38.2c1.2,0,2.5,0.9,4,2l77.1,56.7c2.2,1.7,2.5,5.1,0.3,8.2
		C793.8,179,790.3,179.6,788.2,178z M777.7,110.3c-2,1.6-4,1.2-5.1-0.3l-8.7-12.7c-1-1.5-0.6-3.6,1.5-5.1c2-1.4,4.4-1,5.2,0.4
		l8.5,12.9C780.1,107,779.7,109,777.7,110.3z M792.6,102.5c-2,1.5-4.2,1.3-5.1-0.3l-8.7-12.6c-0.9-1.7-0.5-3.8,1.7-5.2
		c1.9-1.4,4.2-1,5.1,0.5l8.5,12.7C795,99.1,794.5,101.2,792.6,102.5z"/>
	<path class="st1" d="M832.8,189.5c-2,2-5.4,1.7-8.1-1c-2.5-2.7-2.7-6.1-0.6-8.1c20.5-20.1,23.5-27.7,23.7-84.1c0-2.7,2.5-5,6.3-5
		c3.6,0,6.2,2.2,6.2,5C860.1,157,858.1,164.2,832.8,189.5z M889.2,192.8c-2.4,0.9-5.4-0.1-7.3-3.1c-2.1-3-1.5-6-0.3-8.4
		c1.2-2.5,1.7-6,1.7-13.2V91c0-2.5,2.4-4.8,6.1-4.8s6.1,2.2,6.1,4.8v85.3c11.4-3.9,30.4-16,45.6-30.3c2.1-2,5.7-1.7,7.9,1.3
		c2.4,3.2,2.1,6.5,0,8.4C930.9,171.8,911.7,184.5,889.2,192.8z"/>
</g>
<g class="st0">
	<path class="st1" d="M516.5,35.9c-1.7,0-3.1-1.1-4.6-4.1c-0.2-0.4,0.1-0.9,0.6-1.3c0.6-0.3,1.1-0.1,1.4,0.3c1,2.1,1.9,2.5,2.6,2.5
		c2.4,0,3.9-2,3.9-3.8c0-3.1-2-4.6-5.5-4.6c-1.9,0-4,0.5-6.1,1.3c0,3.3,0.1,5.9,0.1,6.5c0,1.2,0,1.9,0.1,2.3
		c0.1,0.6-0.1,1.4-0.9,1.7c-0.8,0.4-1.5,0.2-1.9-0.3c-1.1-1.4-3.6-3.6-5.6-5.1c-0.2,0.1-0.3,0.2-0.4,0.3c-0.4,0.4-1.3,0.3-1.6-0.5
		c-0.4-0.8-0.3-1.5,0.2-1.8c2.8-1.9,5.3-3.5,7.7-4.7c0-1.9,0-3.8-0.1-5.7c-2,0.1-4.1,0.2-6.1,0.1c-0.6,0-1-0.6-1.1-1.4
		c0-0.8,0.7-1.2,1.2-1.1c1.5,0.2,3.7,0.2,5.9,0c0-2.2-0.1-4.1,0-5.2c0-0.6,0.6-1,1.4-1c0.8,0,1.3,0.6,1.3,1.2
		c-0.1,1.3-0.1,3-0.1,4.8c1.4-0.2,2.7-0.3,3.7-0.5c0.5-0.1,1.1,0.3,1.2,1.1c0,0.8-0.3,1.3-0.9,1.4c-1.1,0.2-2.5,0.3-4,0.5
		c0,1.6,0,3.3,0,4.9c2.1-0.8,4-1.2,6-1.2c5,0,8.1,2.5,8.1,7.1C522.9,32.2,520.4,35.9,516.5,35.9z M506.3,27.4
		c-1.6,0.8-3,1.8-4.4,2.8c0.9,1,2.6,2.4,3.7,3.2c0.4,0.3,0.7,0.1,0.7-0.4C506.3,31.7,506.3,29.7,506.3,27.4z M522.2,20.1
		c-2.7-2.3-3.9-3.2-5.1-3.7c-0.5-0.2-0.8-0.8-0.5-1.5c0.4-0.6,1-0.9,1.4-0.7c1.3,0.6,2.4,1.3,5.7,3.8c0.5,0.3,0.5,1.1,0,1.7
		C523.3,20.3,522.6,20.5,522.2,20.1z"/>
	<path class="st1" d="M554,22.3h-5.4v3.8h4.6c0.7,0,1,0.3,1,1.1c0,0.9-0.3,1.1-1,1.1h-4.6v5.5c0,1.9-1.3,3.3-3.3,3.3H542
		c-0.8,0-1.1-0.3-1.1-1.3c0-1,0.7-1.2,1.1-1.2c0.6,0,1.4,0,2.8,0c0.7,0,1.2-0.6,1.2-1.2v-5.2h-16.3c-0.7,0-1-0.3-1-1.1
		c0-0.8,0.3-1.1,1-1.1H546v-3.8h-17.3c-0.7,0-1-0.3-1-1.1c0-0.8,0.3-1.1,1-1.1h11.4v-4.3h-8.2c-0.7,0-1-0.3-1-1.1
		c0-0.8,0.3-1.1,1-1.1h8.2v-2.4c0-0.7,0.3-1.1,1.2-1.1c0.9,0,1.3,0.4,1.3,1.1v2.4h8.1c0.7,0,1,0.3,1,1.1c0,0.9-0.3,1.1-1,1.1h-8.1
		v4.3H554c0.7,0,1,0.3,1,1.1C554.9,22,554.6,22.3,554,22.3z M537.6,35.4c-0.4,0-0.7-0.2-0.9-0.4c-1.1-1.3-2.4-2.7-3.4-3.6
		c-0.1-0.1-0.3-0.4-0.3-0.7c0-0.7,0.8-1.1,1.4-1.1c0.8,0,4.4,3.4,4.4,4.4C539,34.8,538.3,35.4,537.6,35.4z"/>
	<path class="st1" d="M579.3,24.5c-2.3,0.6-4.3,1.2-5.9,1.7c0,1.2,0,2.9,0.1,3.9c0,0.6-0.5,1.1-1.3,1.2c-0.8,0.1-1.3-0.4-1.3-1
		c0-0.9,0-2.2,0-3.2c-4.5,1.8-5.8,3.3-5.8,5c0,1.5,1.3,2.3,4.5,2.3c2.3,0,5.3-0.4,7.7-0.7c0.6-0.1,1.2,0.4,1.1,1.2
		c0,0.8-0.5,1.3-1.1,1.3c-3.2,0.1-6.6,0.5-8.4,0.5c-3.1,0-6.3-1.2-6.3-4.6c0-3,2.6-5.2,8.2-7.4c-0.2-2-1.3-2.8-2.7-2.8
		c-2.2,0-6.1,2.8-7.9,4.9c-0.2,0.3-0.5,0.6-0.7,1c-0.3,0.4-1,0.5-1.6,0.1c-0.6-0.4-0.7-1-0.4-1.5c3.4-4.2,5.5-7.3,6.8-9.9
		c-2.1,0.1-4,0.1-5.4,0c-0.6,0-1-0.6-1.1-1.4c-0.1-0.8,0.7-1.2,1.3-1.1c1.5,0.2,3.9,0.2,6.4,0c0.5-1.2,0.8-2.3,1-3.3
		c0.1-0.6,0.7-1,1.5-0.8c0.8,0.1,1.2,0.7,1,1.3c-0.3,0.9-0.6,1.8-0.9,2.7c2.2-0.2,4.5-0.5,6.4-1c0.5-0.1,1.1,0.3,1.1,1.1
		c0,0.8-0.4,1.4-0.9,1.4c-2.2,0.4-5,0.8-7.9,1c-0.9,1.7-2.2,3.7-3.9,6.2l0.1,0.1c1-0.8,3.8-2.6,6-2.6c2.2,0,3.7,1,4,3.7
		c1.6-0.6,3.4-1.2,5.3-1.8c0.6-0.2,1.2,0.2,1.4,1C580.2,23.7,579.9,24.4,579.3,24.5z"/>
	<path class="st1" d="M588.4,37.1c-0.5,0.3-1.2,0-1.6-0.7c-0.4-0.7-0.1-1.4,0.4-1.6c8.1-3.8,12.4-8.3,13.6-12.6h-17.7
		c-0.5,0-1-0.5-1-1.2s0.5-1.2,1-1.2h16.4c1,0,1.8-0.1,2.3-0.3c0.2-0.1,0.4-0.1,0.6-0.1c0.4,0.1,0.7,0.4,1.1,0.9
		c0.4,0.5,0.5,1,0.4,1.4C601.7,27.9,598.4,32,588.4,37.1z M600.7,15.5h-14.9c-0.5,0-1-0.5-1-1.3s0.5-1.3,1-1.3h14.9
		c0.5,0,1,0.5,1,1.3S601.2,15.5,600.7,15.5z"/>
	<path class="st1" d="M631.2,32.4l-14.3-10.9c-0.2-0.1-0.4-0.2-0.6-0.2c-0.4,0-2.6,2-7.8,7c-0.5,0.4-1.2,0.4-1.8-0.2
		c-0.5-0.6-0.5-1.4-0.1-1.7c8-6.9,8.8-7.6,9.8-7.6c0.2,0,0.5,0.2,0.8,0.4l15.4,11.3c0.4,0.3,0.5,1,0.1,1.6
		C632.3,32.6,631.6,32.7,631.2,32.4z M629.1,18.9c-0.4,0.3-0.8,0.2-1-0.1l-1.7-2.5c-0.2-0.3-0.1-0.7,0.3-1c0.4-0.3,0.9-0.2,1,0.1
		l1.7,2.6C629.6,18.2,629.5,18.6,629.1,18.9z M632,17.3c-0.4,0.3-0.8,0.3-1-0.1l-1.7-2.5c-0.2-0.3-0.1-0.8,0.3-1
		c0.4-0.3,0.8-0.2,1,0.1l1.7,2.5C632.5,16.6,632.4,17,632,17.3z"/>
	<path class="st1" d="M638.2,28.7c-0.8,0-1.3-0.5-1.3-1V13.6c0-0.5,0.5-1,1.3-1c0.7,0,1.2,0.5,1.2,1v14.1
		C639.4,28.3,638.9,28.7,638.2,28.7z M643.6,37c-0.4,0.4-1.1,0.3-1.6-0.2c-0.5-0.5-0.5-1.3-0.1-1.6c6.5-5.6,7.2-7.6,7.2-21.9
		c0-0.5,0.5-1,1.3-1c0.7,0,1.2,0.5,1.2,1C651.6,27.8,651.2,29.8,643.6,37z"/>
	<path class="st1" d="M655.2,35.2c-0.5,0.2-1.1-0.2-1.4-0.9c-0.3-0.7,0-1.4,0.6-1.5c8.2-2.4,14.5-6.2,21-12.6
		c0.4-0.4,1.1-0.4,1.6,0.2c0.5,0.6,0.5,1.3,0.1,1.7C669.3,29.2,664.4,32.2,655.2,35.2z M662.7,20.8c-0.5,0.6-1.2,0.6-1.6,0.2
		c-3.8-3.8-5.1-4.7-6.3-5.5c-0.4-0.2-0.6-0.9-0.1-1.5c0.4-0.5,1-0.8,1.4-0.5c1.8,1.1,2.9,1.9,6.9,5.6
		C663.2,19.5,663.2,20.2,662.7,20.8z"/>
	<path class="st1" d="M685.6,37c-0.4,0.3-1.1,0.1-1.6-0.4c-0.5-0.7-0.3-1.3,0.1-1.6c9.4-5.9,11.9-11.8,12.6-16.2h-8.9
		c-1.2,2-3,4-6.2,7.5c-0.4,0.4-1.1,0.4-1.6-0.1c-0.6-0.5-0.6-1.2-0.2-1.6c5.3-5.5,6.7-7.3,8.4-12.5c0.2-0.5,0.8-0.8,1.5-0.5
		c0.7,0.3,1,0.9,0.8,1.4c-0.5,1.3-0.9,2.4-1.3,3.4h5.8c1.5,0,2.4-0.1,2.9-0.3c0.5-0.1,1-0.1,1.5,0.3c0.5,0.5,0.6,1,0.5,1.4
		C697.6,25.8,695.8,30,685.6,37z M701,15.1c-0.4,0.2-0.9,0.2-1-0.1l-1.5-2.5c-0.2-0.3-0.1-0.7,0.3-0.9c0.4-0.3,0.9-0.2,1,0.1
		l1.5,2.5C701.6,14.3,701.4,14.8,701,15.1z M704,13.8c-0.4,0.2-0.8,0.2-1-0.2l-1.5-2.4c-0.2-0.3-0.1-0.8,0.3-1
		c0.4-0.2,0.8-0.2,1,0.1l1.5,2.4C704.6,13.1,704.4,13.6,704,13.8z"/>
	<path class="st1" d="M726,32.2c-5.1,2.7-9.3,4.4-12.1,4.4c-4.1,0-6.2-2-6.2-5.5c0-1.3,0.2-15,0.1-19c0-0.6,0.5-1.2,1.3-1.2
		c0.8,0,1.3,0.6,1.3,1.2c-0.5,5.3-0.3,18.3-0.3,18.9c0,1.6,0.8,3,3.4,3c2.8,0,6.5-1.5,11.3-4c0.5-0.3,1.1,0,1.5,0.7
		C726.7,31.3,726.5,31.9,726,32.2z"/>
	<path class="st1" d="M753.1,15.1c-1.1,0.2-2.6,0.3-4.3,0.5c-5.1,3.1-9.4,7.8-9.4,11.9c0,4.2,3,6.5,11,6.4c0.6,0,1.1,0.5,1,1.3
		c-0.1,0.8-0.5,1.3-1.1,1.3c-9.3-0.1-13.5-3-13.5-8.9c0-4.1,3.3-8.1,8-11.5c-5.5,0.7-11.7,1.4-14.8,1.7c-0.6,0.1-1.1-0.4-1.2-1.3
		c-0.1-0.8,0.4-1.4,0.9-1.4c6.4-0.5,17-1.5,23.2-2.6c0.6-0.1,1.2,0.3,1.2,1.2C754.1,14.4,753.7,15,753.1,15.1z"/>
	<path class="st1" d="M762.3,35.8c-2,0-4.8-4-5.2-10.3c-0.2-2.6-0.1-7.7,0.2-11.6c0.1-0.5,0.6-0.9,1.4-0.9c0.8,0.1,1.2,0.5,1.2,1.1
		c-0.5,4.5-0.4,9.7-0.3,11.1c0.2,4.4,1.7,7.1,2.7,7.1c0.3,0,1.3-1.7,3.1-5c0.2-0.5,0.9-0.6,1.5-0.3c0.6,0.4,0.8,1,0.5,1.5
		C764.2,33.6,763.1,35.8,762.3,35.8z M779.9,29.5c-0.8,0.3-1.5-0.2-1.7-0.8c-0.6-2.6-2.6-7.5-3.8-9.7c-0.2-0.5-0.1-1.1,0.7-1.5
		c0.7-0.3,1.4-0.1,1.6,0.3c1.5,2.7,3.3,7.4,4.1,10.2C781.1,28.6,780.7,29.2,779.9,29.5z"/>
	<path class="st1" d="M799.4,36.6c-0.6,0.6-1.4,0.7-1.9,0.2c-10.2-10.1-14.2-12-14.2-13.2c0-1.8,5.6-5.7,12.4-13
		c0.5-0.5,1.2-0.5,1.9,0.1c0.7,0.5,0.7,1.3,0.2,1.7c-7.3,6.7-11.1,10.2-11.1,10.9c0,0.7,2.9,2.6,12.8,11.5
		C800.1,35.2,800.1,36,799.4,36.6z"/>
	<path class="st1" d="M827,21.1h-5.4c-0.2,7.3-1.4,9.4-6.6,15.5c-0.4,0.4-1.1,0.4-1.7,0c-0.6-0.5-0.6-1.2-0.3-1.6
		c4.7-5.1,5.8-7,6.1-13.9h-7.8v7.9c0,0.5-0.5,1-1.2,1c-0.8,0-1.3-0.5-1.3-1v-7.9h-5.2c-0.5,0-1-0.5-1-1.2c0-0.7,0.4-1.2,1-1.2h5.2
		V13c0-0.5,0.5-1,1.3-1c0.7,0,1.2,0.5,1.2,1v5.6h7.9c0-1.6,0-3.5,0.1-5.7c0-0.5,0.4-1,1.2-1c0.8,0,1.2,0.5,1.2,1c0,2.2,0,4,0,5.7
		h5.3c0.6,0,1,0.5,1,1.2C828,20.6,827.6,21.1,827,21.1z"/>
	<path class="st1" d="M842.7,21.3c0.5,0.1,0.8,0.5,0.8,1c-0.1,3.7,0,9.8,0,13.7c0.1,0.6-0.5,1-1.2,1c-0.8,0-1.3-0.5-1.3-1V22.4
		c-2.5,1.7-5.5,3.5-9.1,5.7c-0.5,0.3-1.2,0.1-1.6-0.6c-0.4-0.7-0.2-1.3,0.2-1.6c9-5,15.5-9.6,18.5-13.7c0.4-0.5,1.1-0.6,1.7-0.1
		c0.6,0.5,0.7,1.3,0.3,1.7C848.8,16.6,846.2,18.8,842.7,21.3z"/>
	<path class="st1" d="M866.7,28.4l-9.2-6.2c-0.1-0.1-0.1-0.1-0.2-0.2c0,5.5,0,11.5,0.1,14.5c0,0.6-0.5,1-1.3,1c-0.8,0-1.3-0.5-1.3-1
		V11.5c0-0.5,0.5-1,1.3-1c0.8,0,1.3,0.5,1.3,1c0,2.2,0,5.6-0.1,9.2c0,0,0.1-0.1,0.1-0.1c0.5-0.6,1.1-0.8,1.6-0.5l9.2,6.2
		c0.5,0.3,0.5,1,0.1,1.6C867.8,28.6,867.2,28.7,866.7,28.4z"/>
</g>
</svg>
