<?xml version="1.0" encoding="utf-8"?>
<!-- Generator: Adobe Illustrator 25.2.1, SVG Export Plug-In . SVG Version: 6.00 Build 0)  -->
<svg version="1.1" id="レイヤー_1" xmlns="http://www.w3.org/2000/svg" xmlns:xlink="http://www.w3.org/1999/xlink" x="0px"
	 y="0px" viewBox="0 0 444 54" style="enable-background:new 0 0 444 54;" xml:space="preserve">
<style type="text/css">
	.st0{enable-background:new    ;}
	.st1{fill:none;stroke:#FFFFFF;stroke-width:2;}
</style>
<g class="st0">
	<path class="st1" d="M108.2,47.7c-3,0-6.3-1.8-9.1-7.7c-0.6-1.3,0.4-3,2.6-4.2c2.2-1.1,4.1-0.7,4.9,0.5c0.7,1,1.4,1.2,2,1.2
		c2.1,0,3-1.6,3-2.6c0-2.7-2.1-4.6-5.8-4.6c-2.3,0-4.8,0.3-7.2,1c0.1,4.8,0.1,8.4,0.1,9.3c0,1,0,1.8,0,2.4c0.1,1.9-1.2,4.2-4.3,5.3
		c-3.1,1.1-5.6,0.8-6.7-0.8c-2.1-3-5.1-6-7-7.5c-1.2-0.2-2.5-1.2-3.4-3c-1.2-3-1-5.6,0.6-6.6c4.1-2.4,7.6-4.3,10.8-5.8
		c0-1.6,0-3.1,0-4.7c-2.6,0.1-5.2,0.2-7.5,0.1c-1.8,0-3-2-3.1-5.1c-0.1-3.1,1.7-4.9,3.5-4.8c2,0.1,4.5,0.1,7.2,0c0-2.1,0-4,0-5.5
		c0-1.8,2.1-3.1,5.2-3c3,0.1,5,1.7,4.9,3.5c0,1.3-0.1,2.7-0.2,4.2c1-0.2,1.9-0.2,2.8-0.4c1.7-0.3,3.5,1.3,3.8,4.3
		c0.2,2.9-0.8,5.1-2.5,5.4c-1.2,0.2-2.7,0.3-4.2,0.5c0,0.6,0,1.2,0,1.9c2.3-0.6,4.5-0.8,6.6-0.8c10.3,0,16.6,5.1,16.6,14.9
		C121.8,41.1,116.1,47.7,108.2,47.7z M88.9,35.3c-0.8,0.4-1.5,0.9-2.3,1.4c0.7,0.7,1.3,1.3,1.9,1.8c0.2,0.2,0.4,0,0.4-0.2
		C88.9,37.4,88.9,36.4,88.9,35.3z M120.9,18.5c-1.9,2.4-4.2,3.1-5.5,2c-3.9-3.2-5.8-4.9-7.2-5.8c-1.3-0.9-2-3.1-0.6-5.4
		c1.5-2.4,3.3-3.6,4.8-3c1.8,0.8,3.5,2.2,9.1,6.3C122.9,13.7,122.8,16.1,120.9,18.5z"/>
	<path class="st1" d="M168,15.2c-2.4,0.3-6.7,0.6-12.5,0.8V21c2.2,2,3.5,5,3.5,8.9c0,7.5-2.4,12.9-15.7,18.8c-1.8,0.8-4-0.5-5.9-3.2
		c-1.9-2.7-1.1-5.3,0.7-5.9c6.4-2.1,8.9-3.2,9.8-5.1c-2.1,1.3-4.4,2.2-6.3,2.2c-5.1,0-8.6-2.7-8.6-9.4c0-6.5,5.1-9.9,10.8-9.9
		c0.8,0,1.6,0,2.3,0c0-0.4-0.1-0.8-0.1-1.2c-5,0.1-10.5,0.1-16.5,0c-1.8,0-3.2-2-3.2-5.2c0-3.2,1.6-5.2,3.4-5.1
		c5.4,0.4,10.7,0.5,15.6,0.4c-0.1-0.9-0.2-1.5-0.3-1.7c0-1.8,2.1-3.5,5.2-3.3c3.1,0.1,5.2,1.5,5.2,3.5v1.3c4.4-0.2,8-0.6,10.5-0.9
		c1.8-0.2,4.3,1.4,4.4,4.5C170.5,12.8,169.8,15,168,15.2z M144.6,24.5c-2,0-2.8,1.4-2.8,2.6c0,1.8,0.8,2.4,2.3,2.4
		c1.1,0,2-1.3,2.2-4.4C145.8,24.8,145.3,24.5,144.6,24.5z"/>
	<path class="st1" d="M215.1,15.2c-2.4,0.3-6.7,0.6-12.5,0.8V21c2.2,2,3.5,5,3.5,8.9c0,7.5-2.4,12.9-15.7,18.8
		c-1.8,0.8-4-0.5-5.9-3.2c-1.9-2.7-1.1-5.3,0.7-5.9c6.4-2.1,8.9-3.2,9.8-5.1c-2.1,1.3-4.4,2.2-6.3,2.2c-5.1,0-8.6-2.7-8.6-9.4
		c0-6.5,5.1-9.9,10.8-9.9c0.8,0,1.6,0,2.3,0c0-0.4-0.1-0.8-0.1-1.2c-5,0.1-10.5,0.1-16.5,0c-1.8,0-3.2-2-3.2-5.2
		c0-3.2,1.6-5.2,3.4-5.1c5.4,0.4,10.7,0.5,15.6,0.4c-0.1-0.9-0.2-1.5-0.2-1.7c-0.1-1.8,2-3.5,5.2-3.3c3.1,0.1,5.2,1.5,5.2,3.5v1.3
		c4.4-0.2,8-0.6,10.5-0.9c1.8-0.2,4.3,1.4,4.4,4.5C217.6,12.8,216.9,15,215.1,15.2z M191.7,24.5c-2,0-2.8,1.4-2.8,2.6
		c0,1.8,0.8,2.4,2.3,2.4c1.1,0,2-1.3,2.2-4.4C192.9,24.8,192.4,24.5,191.7,24.5z"/>
	<path class="st1" d="M256.2,47.4c-1.3,1.2-3.8,0.6-5.9-1.7c-2.1-2.2-2.4-4.8-0.9-5.9c7.2-6,8.1-9,8.1-11.9c0-2.5-2.8-5.6-6.5-6.9
		c-1.7,5.7-3.7,10.8-6.1,15.1c0.3,0.4,0.7,0.8,1,1.2c1.2,1.4,0.5,3.9-1.9,5.9c-2.2,1.9-4.7,2.2-5.8,0.9c-2.8,2.1-5.9,3.2-9.7,3.2
		c-3.2,0-7.9-4-7.9-11.5c0-5.7,1.9-10.5,5.1-14.5c-1-3.8-1.4-7.7-1.5-12.3c0-1.8,2-3.2,5.1-3.4c3.1-0.1,5,1.4,4.9,3.2
		c-0.1,2-0.2,3.8,0,5.6c3-1.5,6.3-2.7,9.7-3.4c0.5-2.1,1-4.2,1.4-6.4c0.3-1.7,2.5-2.6,5.4-2.1c3,0.6,4.6,2.3,4.2,4
		c-0.3,1.5-0.7,2.9-1.1,4.2c8.8,1.7,14.3,9.4,14.3,17.3C268.1,34,265.3,39.2,256.2,47.4z M229.2,30.5c-0.5,1.3-0.8,2.7-0.8,4.1
		c0,1.6,1.2,2.6,2.2,2.6c0.7,0,1.4-0.2,2.2-0.7C231.3,34.4,230.1,32.4,229.2,30.5z M236.5,23.2c0.6,1.3,1.3,2.7,2.2,4.2
		c0.8-1.8,1.6-3.8,2.2-6C239.4,21.9,237.9,22.5,236.5,23.2z"/>
	<path class="st1" d="M290.5,16.2h-18.5c-1.2,0-2.1-1.3-2.1-3.3c0-1.9,0.9-3.2,2.1-3.2h18.5c1.2,0,2,1.3,2,3.2
		C292.6,14.9,291.7,16.2,290.5,16.2z M287.1,48.2h-11.6c-2.1,0-3.8-1.7-3.8-3.8v-8c0-2.1,1.7-3.8,3.8-3.8h11.6
		c2.1,0,3.8,1.7,3.8,3.8v8C290.9,46.5,289.2,48.2,287.1,48.2z M288.5,8.6h-14.5c-1.2,0-2.1-1.3-2.1-3.3c0-2,0.9-3.2,2.1-3.2h14.5
		c1.1,0,2,1.3,2,3.2C290.6,7.3,289.7,8.6,288.5,8.6z M288.5,23.8h-14.5c-1.2,0-2.1-1.3-2.1-3.3c0-2,0.9-3.2,2.1-3.2h14.5
		c1.1,0,2,1.3,2,3.2C290.6,22.5,289.7,23.8,288.5,23.8z M288.5,31.5h-14.5c-1.2,0-2.1-1.3-2.1-3.3c0-2,0.9-3.3,2.1-3.3h14.5
		c1.1,0,2,1.3,2,3.3C290.6,30.2,289.7,31.5,288.5,31.5z M282.5,39.3c0-0.3-0.2-0.5-0.5-0.5h-1.3c-0.3,0-0.5,0.2-0.5,0.5v2.2
		c0,0.3,0.2,0.5,0.5,0.5h1.3c0.3,0,0.5-0.2,0.5-0.5V39.3z M318.4,38.2c-1.3,7.2-3.8,9.8-8.2,9.8h-10.2c-4,0-7-2.2-7-8V23
		c0-2.1,1.7-3.8,3.8-3.8h9.7c0.3,0,0.5-0.2,0.5-0.5v-5.9c0-0.3-0.2-0.5-0.5-0.5h-11.1c-1.6,0-2.8-1.8-2.8-4.6c0-2.7,1.2-4.6,2.8-4.6
		h17.1c2.1,0,3.8,1.7,3.8,3.8v17.6c0,2.1-1.7,3.7-3.8,3.7h-9.7c-0.3,0-0.5,0.2-0.5,0.5v9.1c0,0.4,0.2,0.7,0.9,0.7h5.5
		c2.3,0-0.1-4.8,4.5-4.8c2.2,0,5.4,1.1,5.4,3.7C318.4,37.7,318.4,37.9,318.4,38.2z"/>
	<path class="st1" d="M366.4,35.4h-0.3v2.3c0,2.1-1.7,3.8-3.8,3.8h-13.1v2.3c0,3.7-1.4,5-5.1,5h-8.6c-1,0-1.8-1.2-1.8-3
		c0-1.8,0.9-2.8,2-2.8c0.8,0,1.7,0.1,2.6,0.1c0.4,0,0.8-0.3,0.8-0.7v-0.9h-15.5c-0.9,0-1.7-1.1-1.7-2.8c0-1.6,0.8-2.7,1.7-2.7H339
		v-1.1h-17.3c-0.9,0-1.6-1.1-1.6-2.7c0-1.6,0.7-2.6,1.6-2.6H339v-1.2h-15.5c-0.9,0-1.7-1.1-1.7-2.7c0-1.6,0.7-2.7,1.7-2.7H339v-1.1
		h-11.7c-2.1,0-3.8-1.7-3.8-3.8v-3.1c0-2.1,1.7-3.8,3.8-3.8H339v-1.2h-16.9c-1.1,0-2-1.3-2-3.4c0-1.9,0.9-3.3,2-3.3H339
		c0-2.1,2.2-2.7,5.1-2.7c3,0,5.1,0.6,5.1,2.7h16.9c1.2,0,2,1.4,2,3.3c0,2-0.9,3.4-2,3.4h-16.9v1.2h11.7c2.1,0,3.8,1.7,3.8,3.8v3.1
		c0,2.1-1.7,3.8-3.8,3.8h-11.7V23h13.1c2.1,0,3.8,1.7,3.8,3.8v2.3h0.3c1.1,0,1.9,1.2,1.9,3.2S367.5,35.4,366.4,35.4z M339,15.8h-4.9
		c-0.3,0-0.5,0.2-0.5,0.5v0.6c0,0.3,0.2,0.5,0.5,0.5h4.9V15.8z M354.6,16.3c0-0.3-0.2-0.5-0.5-0.5h-4.9v1.6h4.9
		c0.3,0,0.5-0.2,0.5-0.5V16.3z M356.7,28.9c0-0.3-0.2-0.5-0.5-0.5h-7v1.4h7.5V28.9z M356.7,34.6h-7.5V36h7c0.3,0,0.5-0.2,0.5-0.5
		V34.6z"/>
</g>
</svg>
