<svg id="レイヤー_1" data-name="レイヤー 1" xmlns="http://www.w3.org/2000/svg" viewBox="0 0 52 65.74"><defs><style>.cls-1,.cls-2,.cls-3,.cls-5{fill:none;}.cls-1,.cls-3,.cls-5{stroke:#fff;stroke-miterlimit:10;}.cls-3{stroke-width:2px;}.cls-4{fill:#fff;}.cls-5{stroke-width:0.5px;}</style></defs><path class="cls-1" d="M34.69,30.75h0a7.93,7.93,0,0,0,6.59-3.14,10.77,10.77,0,0,1-7-6.85H15.74a10.77,10.77,0,0,1-7,6.85,7.93,7.93,0,0,0,6.59,3.14h.42v9.66h-7v1.88H41.28V40.41H34.69Z"/><rect class="cls-1" x="21.69" y="30.75" width="6.62" height="3.35"/><rect class="cls-1" x="25.71" y="35.52" width="2.6" height="4.88"/><rect class="cls-1" x="21.69" y="35.52" width="2.6" height="4.88"/><rect class="cls-1" x="29.74" y="35.52" width="3.52" height="4.88"/><rect class="cls-1" x="29.74" y="30.75" width="3.52" height="3.35"/><rect class="cls-1" x="17.16" y="30.75" width="3.1" height="3.35"/><rect class="cls-1" x="17.16" y="35.52" width="3.1" height="4.88"/><path class="cls-1" d="M16.06,19.54v.06H34v-.06h.13L34.69,17H15.44l.62,2.54Z"/><rect id="SVGID" class="cls-2" x="8.72" y="17" width="32.55" height="25.29"/><path class="cls-3" d="M34.51,1H4.92A3.93,3.93,0,0,0,1,4.92V44.58A3.93,3.93,0,0,0,4.92,48.5H47.08A3.93,3.93,0,0,0,51,44.58v-29a3.92,3.92,0,0,0-1.39-3L37.05,1.93A3.94,3.94,0,0,0,34.51,1Z"/><path class="cls-4" d="M35.5,2.23l.62,12.28a.8.8,0,0,0,.8.81l13-.66a.87.87,0,0,0,.42-1.52L36.72,1.52A.75.75,0,0,0,35.5,2.23Z"/><path class="cls-5" d="M18.35,65.43c-.28.15-.66,0-.88-.44s-.12-.8.17-.93c3.16-1.48,4.71-3.07,5.2-4.57h-7c-.31,0-.56-.3-.56-.75s.25-.75.56-.75h6.73a3.54,3.54,0,0,0,1-.12.6.6,0,0,1,.32,0,1.43,1.43,0,0,1,.65.5.78.78,0,0,1,.25.79C23.85,61.53,22.6,63.27,18.35,65.43ZM23,56.57H17c-.31,0-.57-.31-.57-.77S16.69,55,17,55H23c.31,0,.58.31.58.78S23.26,56.57,23,56.57Z"/><path class="cls-5" d="M36.83,63.76l-5.71-4.48a.6.6,0,0,0-.27-.1c-.17,0-.81.58-2.85,2.66-.23.25-.67.22-1-.15a.71.71,0,0,1-.1-1c3.22-2.81,3.65-3.15,4.09-3.15a.51.51,0,0,1,.32.15l6.49,4.81c.26.19.27.61,0,1S37.09,64,36.83,63.76Zm-.67-5.89a.36.36,0,0,1-.5,0l-.76-1.12c-.09-.13,0-.34.18-.48a.35.35,0,0,1,.5,0l.76,1.12C36.43,57.51,36.36,57.73,36.16,57.87Zm1.29-.69a.35.35,0,0,1-.5,0L36.19,56c-.09-.14,0-.34.17-.47a.34.34,0,0,1,.5,0l.75,1.14C37.7,56.84,37.65,57,37.45,57.18Z"/><path class="cls-5" d="M41,64.39c-.22.23-.63.18-.95-.15a.68.68,0,0,1-.12-1c1.63-1.54,1.85-2.44,1.87-6.7,0-.32.31-.58.78-.58s.79.26.79.58C43.32,61.13,43,62.38,41,64.39Zm4.63.35a.61.61,0,0,1-.7-.31,1.28,1.28,0,0,1-.3-.9.55.55,0,0,1,.08-.15,1.88,1.88,0,0,0,.17-1V56.15c0-.32.31-.58.78-.58s.76.26.76.58v6.51a12.06,12.06,0,0,0,3.11-2.14.64.64,0,0,1,.94.2c.29.39.29.79,0,1A16.53,16.53,0,0,1,45.6,64.74Z"/><path class="cls-5" d="M12,60H8.58c-.12,2.29-.64,3.15-2.66,5.16-.24.24-.64.2-1-.15s-.36-.76-.12-1C6.57,62.37,7,61.68,7.05,60H3c-.32,0-.58-.3-.58-.78s.26-.75.58-.75h9c.31,0,.57.3.57.75S12.3,60,12,60Zm-1.4-3.45H4.38c-.3,0-.56-.3-.56-.77s.26-.75.56-.75h6.21c.31,0,.57.3.57.75S10.9,56.57,10.59,56.57Z"/></svg>